<?xml version="1.0" encoding="UTF-8" standalone="no"?>
<!-- Created with Inkscape (http://www.inkscape.org/) -->

<svg
   xmlns:dc="http://purl.org/dc/elements/1.1/"
   xmlns:cc="http://creativecommons.org/ns#"
   xmlns:rdf="http://www.w3.org/1999/02/22-rdf-syntax-ns#"
   xmlns:svg="http://www.w3.org/2000/svg"
   xmlns="http://www.w3.org/2000/svg"
   xmlns:sodipodi="http://sodipodi.sourceforge.net/DTD/sodipodi-0.dtd"
   xmlns:inkscape="http://www.inkscape.org/namespaces/inkscape"
   width="27.148275mm"
   height="50mm"
   viewBox="0 0 96.194677 177.16535"
   id="svg19157"
   version="1.1"
   inkscape:version="0.91 r13725"
   sodipodi:docname="Player_Pistols.svg"
   inkscape:export-filename="C:\FFF2\Art\Player\Export\Player_Pistols.png"
   inkscape:export-xdpi="65.023994"
   inkscape:export-ydpi="65.023994">
  <defs
     id="defs19159" />
  <sodipodi:namedview
     id="base"
     pagecolor="#ffffff"
     bordercolor="#666666"
     borderopacity="1.0"
     inkscape:pageopacity="0.0"
     inkscape:pageshadow="2"
     inkscape:zoom="4"
     inkscape:cx="-68.258663"
     inkscape:cy="78.316821"
     inkscape:document-units="px"
     inkscape:current-layer="layer11"
     showgrid="false"
     inkscape:window-width="1920"
     inkscape:window-height="1017"
     inkscape:window-x="-8"
     inkscape:window-y="-8"
     inkscape:window-maximized="1"
     fit-margin-top="3"
     fit-margin-left="3"
     fit-margin-right="3"
     fit-margin-bottom="4" />
  <metadata
     id="metadata19162">
    <rdf:RDF>
      <cc:Work
         rdf:about="">
        <dc:format>image/svg+xml</dc:format>
        <dc:type
           rdf:resource="http://purl.org/dc/dcmitype/StillImage" />
        <dc:title />
      </cc:Work>
    </rdf:RDF>
  </metadata>
  <g
     inkscape:label="Arms"
     inkscape:groupmode="layer"
     id="layer1"
     transform="translate(-271.90267,-268.19421)">
    <path
       style="display:inline;fill:none;fill-rule:evenodd;stroke:#000000;stroke-width:1px;stroke-linecap:butt;stroke-linejoin:miter;stroke-opacity:1"
       d="m 296.05134,373.57513 c -4.71296,-4.17156 0.13155,-8.805 3.16116,-14.99225 2.83113,-3.08641 4.49976,-3.86931 6.58426,-6.32944 0.40278,-0.29671 5.91794,-4.54886 6.28363,-4.89052"
       id="path3678"
       inkscape:connector-curvature="0"
       sodipodi:nodetypes="cccc" />
    <path
       style="display:inline;fill:none;fill-rule:evenodd;stroke:#000000;stroke-width:1px;stroke-linecap:butt;stroke-linejoin:miter;stroke-opacity:1"
       d="m 289.32496,384.37758 c -3.41271,-4.15333 -4.00365,-7.92203 -5.86574,-13.16848 -0.60638,-4.16938 -0.95986,-5.8293 1.57871,-12.43608 1.94061,-4.10222 3.92456,-5.44017 7.75247,-8.54928 2.9051,-1.50541 7.93613,-3.11979 10.82303,-3.89861"
       id="path3682"
       inkscape:connector-curvature="0"
       sodipodi:nodetypes="ccccc" />
    <path
       style="display:inline;fill:none;fill-rule:evenodd;stroke:#000000;stroke-width:1px;stroke-linecap:butt;stroke-linejoin:miter;stroke-opacity:1"
       d="m 283.14065,365.26522 c 0.45207,-0.37794 1.14413,-0.10698 1.58171,-0.51423 2.02603,-1.02913 3.23648,-3.34354 3.11585,-5.58785 -0.022,-1.09487 -0.16562,-2.18905 -0.0826,-3.28437 -0.0144,-0.34725 -0.076,-0.69942 -0.23691,-1.01074"
       id="path3824"
       inkscape:connector-curvature="0" />
    <path
       style="display:inline;fill:none;fill-rule:evenodd;stroke:#000000;stroke-width:1px;stroke-linecap:butt;stroke-linejoin:miter;stroke-opacity:1"
       d="m 344.55,372.34356 c 1.76235,-1.47464 1.52254,-5.24462 0.17954,-7.59448 -2.0585,-3.58958 -4.13898,-5.4653 -6.73709,-7.62556 -3.54691,-2.46086 -5.14725,-4.41107 -9.4296,-6.56961 -1.40618,-1.34902 -2.94121,-1.98115 -4.1637,-3.55085"
       id="path3919"
       inkscape:connector-curvature="0"
       sodipodi:nodetypes="ccccc" />
    <path
       style="display:inline;fill:none;fill-rule:evenodd;stroke:#000000;stroke-width:1px;stroke-linecap:butt;stroke-linejoin:miter;stroke-opacity:1"
       d="m 350.83738,379.62626 c 3.65303,-1.38499 5.70612,-5.39341 5.70326,-9.159 1.07666,-6.9745 0.38207,-12.28225 -4.67835,-17.45502 -3.64551,-3.21783 -7.93822,-4.73573 -11.86209,-7.01358 -1.72405,-0.79812 -5.51384,-2.66977 -7.46911,-2.54812"
       id="path3958"
       inkscape:connector-curvature="0"
       sodipodi:nodetypes="ccccc" />
    <path
       style="display:inline;fill:none;fill-rule:evenodd;stroke:#000000;stroke-width:1px;stroke-linecap:butt;stroke-linejoin:miter;stroke-opacity:1"
       d="m 348.73647,351.09629 c 0.0187,1.29927 0.17536,2.60764 -0.024,3.90063 0.14846,1.32695 1.17475,2.27944 1.85221,3.35576 0.67718,1.01794 1.71981,1.7888 2.89493,2.12894 1.00283,0.49926 1.86086,1.29525 2.96728,1.57516"
       id="path4000"
       inkscape:connector-curvature="0" />
  </g>
  <g
     inkscape:groupmode="layer"
     id="layer11"
     inkscape:label="Guns"
     transform="translate(-271.90267,-268.19421)">
    <rect
       style="display:inline;fill:#333333;stroke:#000000"
       id="rect3585"
       width="8.1317282"
       height="17.854446"
       x="303.94867"
       y="329.50845" />
    <rect
       style="display:inline;fill:#333333;stroke:#000000"
       id="rect3585-3"
       width="8.1317282"
       height="17.854446"
       x="324.39935"
       y="329.14862" />
    <path
       style="display:inline;fill:#1a1a1a;fill-rule:evenodd;stroke:#000000;stroke-width:1px;stroke-linecap:butt;stroke-linejoin:miter;stroke-opacity:1"
       d="m 305.55134,329.50846 0,-1.55833 4.3125,0 0,1.55833"
       id="path4050"
       inkscape:connector-curvature="0" />
    <path
       style="display:inline;fill:#1a1a1a;fill-rule:evenodd;stroke:#000000;stroke-width:1px;stroke-linecap:butt;stroke-linejoin:miter;stroke-opacity:1"
       d="m 326.23884,329.14863 0,-1.511 4.125,0 0,1.511"
       id="path4054"
       inkscape:connector-curvature="0" />
    <path
       style="fill:#00ff00;fill-opacity:1"
       d="m 288.37566,382.24944 c -1.36327,-2.1456 -1.8489,-3.28056 -3.37527,-7.88833 -1.18827,-3.58709 -1.48791,-5.07828 -1.49238,-7.42675 -0.003,-1.41079 0.0397,-1.49942 0.71753,-1.49942 0.65098,0 2.23057,-1.21789 2.90575,-2.24038 1.08499,-1.64311 1.22029,-2.46844 1.08063,-6.59192 l -0.0582,-1.71979 0.61067,-0.61484 c 1.54199,-1.5525 4.07563,-3.51142 5.3063,-4.10265 1.97152,-0.94714 8.51937,-3.23673 9.25651,-3.23673 0.14067,0 0.20381,0.14903 0.20381,0.48104 l 0,0.48104 3.52785,0.0369 3.52785,0.0369 -2.25036,1.72184 c -1.2377,0.94701 -2.93399,2.37891 -3.76954,3.182 -0.83555,0.80309 -1.82991,1.73021 -2.20971,2.06026 -1.70446,1.48123 -3.56609,3.43171 -3.89838,4.08444 -0.19334,0.37979 -1.06528,1.93206 -1.93765,3.44948 -2.19648,3.82062 -2.92227,5.60091 -2.93135,7.19025 -0.006,1.12414 0.59776,2.57263 1.53553,3.68132 l 0.43168,0.51037 -0.9277,1.00881 c -1.77447,1.92961 -4.04647,5.16331 -5.09956,7.25813 -0.27684,0.5507 -0.52634,1.00128 -0.55444,1.00128 -0.0281,0 -0.29789,-0.38843 -0.59953,-0.86317 z"
       id="path19217"
       inkscape:connector-curvature="0" />
    <path
       style="fill:#00ff00;fill-opacity:1"
       d="m 350.25609,377.96813 c -0.94352,-1.34559 -2.69392,-3.40187 -3.94274,-4.63173 l -1.02193,-1.00642 0.42147,-0.85035 c 0.37395,-0.75447 0.42714,-1.0158 0.4717,-2.31756 0.062,-1.81159 -0.15636,-2.77683 -1.01503,-4.48672 -1.38647,-2.76093 -4.18474,-5.83772 -7.86062,-8.64302 -4.79907,-3.66247 -5.80096,-4.38441 -6.97989,-5.02955 -0.69404,-0.3798 -1.65607,-1.00128 -2.13784,-1.38107 -0.48178,-0.3798 -1.2245,-0.95434 -1.6505,-1.27677 -0.426,-0.32242 -0.77455,-0.6487 -0.77455,-0.72506 0,-0.0895 1.27516,-0.13883 3.58665,-0.13883 l 3.58665,0 0.0387,-1.76086 0.0387,-1.76086 0.46838,0.046 c 1.68148,0.16505 6.04542,2.17011 13.20419,6.06681 l 1.51918,0.82693 0.0737,2.39968 c 0.0446,1.45162 0.14196,2.5583 0.24652,2.80118 0.2829,0.65708 1.8879,2.86902 2.53304,3.49091 0.50608,0.48785 1.81449,1.28659 2.10754,1.28659 0.0478,0 0.47837,0.24723 0.95683,0.54941 0.47846,0.30217 1.1558,0.67586 1.50521,0.83042 0.51325,0.22704 0.65427,0.36689 0.73414,0.72808 0.17053,0.77115 0.0972,4.51467 -0.12372,6.31661 -0.11641,0.94948 -0.24717,2.08131 -0.29056,2.51517 -0.17943,1.79383 -1.09742,3.84971 -2.38589,5.34329 -0.56992,0.66066 -2.12136,1.80901 -2.44398,1.80901 -0.0897,0 -0.47908,-0.45057 -0.86522,-1.00127 z"
       id="path19219"
       inkscape:connector-curvature="0" />
    <path
       style="fill:#677821;fill-opacity:1"
       d="m 283.8369,364.04034 c 0.33923,-2.12143 2.6946,-7.72045 3.2478,-7.72045 0.17072,0 0.3424,2.7541 0.23546,3.77727 -0.10719,1.02548 -0.6991,2.33649 -1.41035,3.12377 -0.4752,0.52599 -1.73647,1.3808 -2.04218,1.38407 -0.0667,7.1e-4 -0.0805,-0.25338 -0.0307,-0.56466 z"
       id="path19221"
       inkscape:connector-curvature="0" />
    <path
       style="fill:#677821;fill-opacity:1"
       d="m 355.0448,360.8698 c -0.49373,-0.30793 -1.29736,-0.74413 -1.78585,-0.96934 -0.48849,-0.2252 -1.08652,-0.56076 -1.32897,-0.74568 -0.50236,-0.38317 -2.3573,-2.9203 -2.55982,-3.50124 -0.0738,-0.21178 -0.11681,-1.20988 -0.0955,-2.218 l 0.0387,-1.83294 0.93085,0.70495 c 2.17577,1.64777 4.20796,4.33513 5.1254,6.77784 0.47215,1.25709 0.78245,2.34446 0.66901,2.34437 -0.0529,-4e-5 -0.50009,-0.25202 -0.99383,-0.55996 z"
       id="path19223"
       inkscape:connector-curvature="0" />
  </g>
  <g
     inkscape:groupmode="layer"
     id="layer12"
     inkscape:label="Head"
     transform="translate(-271.90267,-268.19421)">
    <circle
       style="opacity:1;fill:#00ff00;fill-rule:evenodd;stroke:#000000;stroke-width:1px;stroke-linecap:butt;stroke-linejoin:miter;stroke-opacity:1"
       id="path3449-96-35"
       cx="321.18079"
       cy="398.8743"
       r="35.355339" />
  </g>
</svg>
