<?xml version="1.0" encoding="UTF-8" standalone="no"?>
<!-- Created with Inkscape (http://www.inkscape.org/) -->

<svg
   xmlns:dc="http://purl.org/dc/elements/1.1/"
   xmlns:cc="http://creativecommons.org/ns#"
   xmlns:rdf="http://www.w3.org/1999/02/22-rdf-syntax-ns#"
   xmlns:svg="http://www.w3.org/2000/svg"
   xmlns="http://www.w3.org/2000/svg"
   xmlns:sodipodi="http://sodipodi.sourceforge.net/DTD/sodipodi-0.dtd"
   xmlns:inkscape="http://www.inkscape.org/namespaces/inkscape"
   width="31.07822mm"
   height="46.345669mm"
   viewBox="0 0 110.11968 164.21694"
   id="svg17768"
   version="1.1"
   inkscape:version="0.91 r13725"
   sodipodi:docname="Player_MG.svg"
   inkscape:export-filename="C:\FFF2\Art\Player\Export\Player_MG.png"
   inkscape:export-xdpi="70.151108"
   inkscape:export-ydpi="70.151108">
  <defs
     id="defs17770" />
  <sodipodi:namedview
     id="base"
     pagecolor="#ffffff"
     bordercolor="#666666"
     borderopacity="1.0"
     inkscape:pageopacity="0.0"
     inkscape:pageshadow="2"
     inkscape:zoom="0.99999999"
     inkscape:cx="-528.60194"
     inkscape:cy="54.147963"
     inkscape:document-units="px"
     inkscape:current-layer="layer6"
     showgrid="false"
     inkscape:window-width="1920"
     inkscape:window-height="1017"
     inkscape:window-x="-8"
     inkscape:window-y="-8"
     inkscape:window-maximized="1"
     fit-margin-top="3"
     fit-margin-left="3"
     fit-margin-right="3"
     fit-margin-bottom="3" />
  <metadata
     id="metadata17773">
    <rdf:RDF>
      <cc:Work
         rdf:about="">
        <dc:format>image/svg+xml</dc:format>
        <dc:type
           rdf:resource="http://purl.org/dc/dcmitype/StillImage" />
        <dc:title />
      </cc:Work>
    </rdf:RDF>
  </metadata>
  <g
     inkscape:label="Layer 1"
     inkscape:groupmode="layer"
     id="layer1"
     transform="translate(-204.94017,-370.25372)" />
  <g
     inkscape:groupmode="layer"
     id="layer7"
     inkscape:label="Arms"
     transform="translate(-204.94017,-370.25372)">
    <path
       style="fill:none;fill-rule:evenodd;stroke:#000000;stroke-width:1px;stroke-linecap:butt;stroke-linejoin:miter;stroke-opacity:1"
       d="m 241.23456,465.56839 c -1.29354,-4.68973 -1.6918,-9.6523 -0.95525,-14.47065 1.36474,-4.5659 4.58384,-8.32413 8.20309,-11.30789 0.14961,-0.0361 0.29923,-0.0722 0.44884,-0.10831"
       id="path3513-4"
       inkscape:connector-curvature="0" />
    <path
       style="fill:none;fill-rule:evenodd;stroke:#000000;stroke-width:1px;stroke-linecap:butt;stroke-linejoin:miter;stroke-opacity:1"
       d="m 250.2652,426.30802 c -12.85815,3.24971 -21.0541,16.12046 -23.217,28.5593 -0.68623,7.77228 2.70897,15.6214 8.34382,20.91453"
       id="path3537-3"
       inkscape:connector-curvature="0" />
    <path
       style="fill:none;fill-rule:evenodd;stroke:#000000;stroke-width:0.99462539px;stroke-linecap:butt;stroke-linejoin:miter;stroke-opacity:1"
       d="m 233.40994,438.38069 c 2.99065,5.96176 0.0727,14.0578 -6.02162,16.75512"
       id="path3541-8"
       inkscape:connector-curvature="0" />
    <path
       style="fill:none;fill-rule:evenodd;stroke:#000000;stroke-width:1px;stroke-linecap:butt;stroke-linejoin:miter;stroke-opacity:1"
       d="m 280.68571,454.76916 c 2.03003,-4.23799 1.62608,-9.08747 1.1156,-13.61534 0.0213,-8.67582 -1.02681,-17.87266 -6.09254,-25.18619 -2.46462,-3.50958 -6.03545,-6.49145 -10.33034,-7.33456 -0.53703,0.004 -1.07616,0.0884 -1.58092,0.27512"
       id="path3681-9"
       inkscape:connector-curvature="0" />
    <path
       style="fill:none;fill-rule:evenodd;stroke:#000000;stroke-width:1px;stroke-linecap:butt;stroke-linejoin:miter;stroke-opacity:1"
       d="m 294.45418,463.89713 c 4.36784,-11.39294 8.88224,-23.41735 7.45743,-35.84016 -1.96475,-10.08474 -6.37046,-20.5303 -15.24312,-26.38346 -6.66966,-4.41897 -14.9305,-6.35562 -22.87094,-5.4049"
       id="path3799-6"
       inkscape:connector-curvature="0" />
    <path
       style="fill:none;fill-rule:evenodd;stroke:#000000;stroke-width:1px;stroke-linecap:butt;stroke-linejoin:miter;stroke-opacity:1"
       d="m 296.87828,413.27421 c -2.14623,2.59274 -2.41553,6.1974 -1.93421,9.40453 0.76775,5.84104 3.53179,11.15149 6.35538,16.2342 0.10196,0.15409 0.25246,0.29078 0.44015,0.3244"
       id="path3827-23"
       inkscape:connector-curvature="0" />
  </g>
  <g
     inkscape:groupmode="layer"
     id="layer5"
     inkscape:label="Gun"
     transform="translate(-204.94017,-370.25372)">
    <path
       style="fill:#cccccc;fill-rule:evenodd;stroke:#000000;stroke-width:1px;stroke-linecap:butt;stroke-linejoin:miter;stroke-opacity:1"
       d="m 265.47628,452.76609 0,-71.38243 -20.9216,0 0,80.65908"
       id="path4009"
       inkscape:connector-curvature="0" />
    <path
       style="fill:none;fill-rule:evenodd;stroke:#000000;stroke-width:1px;stroke-linecap:butt;stroke-linejoin:miter;stroke-opacity:1"
       d="m 265.47628,434.2399 -20.9216,0"
       id="path4011"
       inkscape:connector-curvature="0" />
    <path
       style="fill:none;fill-rule:evenodd;stroke:#000000;stroke-width:1px;stroke-linecap:butt;stroke-linejoin:miter;stroke-opacity:1"
       d="m 255.01548,381.38366 0,34.38307"
       id="path4027"
       inkscape:connector-curvature="0" />
    <path
       style="fill:none;fill-rule:evenodd;stroke:#000000;stroke-width:1px;stroke-linecap:butt;stroke-linejoin:miter;stroke-opacity:1"
       d="m 249.85798,381.38366 0,33.49919"
       id="path4029"
       inkscape:connector-curvature="0" />
    <path
       style="fill:none;fill-rule:evenodd;stroke:#000000;stroke-width:1.00366235px;stroke-linecap:butt;stroke-linejoin:miter;stroke-opacity:1"
       d="m 260.37619,381.38366 0,33.36661"
       id="path4031"
       inkscape:connector-curvature="0" />
    <path
       style="fill:#4d4d4d;fill-opacity:1"
       d="m 244.98265,460.88406 c -0.0885,-0.0885 -0.16098,-3.68597 -0.16098,-7.99431 l 0,-7.83333 2.75,0 2.75,0 0,-5.25 0,-5.25 7.37816,0 7.37816,0 -0.0657,8.91655 -0.0657,8.91654 -2.55118,0.42794 c -3.16852,0.53149 -5.95444,1.43079 -9.2221,2.9769 -2.53314,1.19857 -5.62583,3.14 -7.19065,4.51393 -0.46151,0.40522 -0.91155,0.66432 -1.00009,0.57578 z"
       id="path18136"
       inkscape:connector-curvature="0" />
  </g>
  <g
     inkscape:groupmode="layer"
     id="layer6"
     inkscape:label="Ammo Box"
     transform="translate(-204.94017,-370.25372)">
    <rect
       style="fill:#decd87;stroke:#000000;stroke-width:1.03276658"
       id="rect4023"
       width="33.784859"
       height="21.574511"
       x="216.08647"
       y="422.95264" />
    <path
       style="fill:#677821;fill-opacity:1"
       d="m 300.11406,435.74618 c -2.26984,-4.24359 -3.72524,-8.02468 -4.44127,-11.53833 -0.50535,-2.47979 -0.53703,-5.79898 -0.0702,-7.35816 0.33592,-1.12199 0.99117,-2.53906 1.17407,-2.53906 0.0585,0 0.44313,0.7251 0.85475,1.61133 2.07353,4.46443 3.79947,10.70406 4.02436,14.54895 0.14839,2.53682 -0.0538,7.27722 -0.31039,7.27722 -0.0883,0 -0.64234,-0.90088 -1.23129,-2.00195 z"
       id="path18120"
       inkscape:connector-curvature="0" />
    <path
       style="fill:#677821;fill-opacity:1"
       d="m 227.80898,453.44073 c 0.18331,-1.2224 1.13962,-4.405 1.99561,-6.64135 l 0.69842,-1.82469 1.75418,0 1.75419,0 -0.13798,0.92006 c -0.27592,1.84 -1.36744,4.14299 -2.79269,5.89233 -0.69366,0.85139 -2.83855,2.56261 -3.21204,2.56261 -0.12258,0 -0.14494,-0.34051 -0.0597,-0.90896 z"
       id="path18124"
       inkscape:connector-curvature="0" />
    <path
       style="fill:#00ff00;fill-opacity:1"
       d="m 233.92033,473.58535 c -1.57108,-1.739 -3.5835,-4.97312 -4.57197,-7.34753 -1.0871,-2.61133 -1.92318,-6.50047 -1.91846,-8.92395 l 0.003,-1.79539 1.03679,-0.47701 c 1.21212,-0.55767 3.07953,-2.33 4.26843,-4.05108 0.89381,-1.29391 2.12282,-4.45488 2.13247,-5.48465 0.006,-0.61586 0.0424,-0.62149 4.03805,-0.62149 l 4.03222,0 -0.59803,0.8977 c -1.07952,1.62043 -2.19467,4.14876 -2.52,5.71348 -0.43515,2.09288 -0.17765,9.24262 0.42543,11.81251 l 0.46675,1.98898 -1.91614,2.90128 c -1.05388,1.59571 -2.26191,3.71485 -2.68452,4.7092 -0.42261,0.99436 -0.85956,1.80792 -0.97101,1.80792 -0.11145,0 -0.66203,-0.50849 -1.2235,-1.12997 z"
       id="path18126"
       inkscape:connector-curvature="0" />
    <path
       style="fill:#00ff00;fill-opacity:1"
       d="m 292.19123,461.13018 c -2.54569,-2.20732 -5.52431,-4.16003 -8.464,-5.5488 l -2.3873,-1.1278 0.36761,-1.04194 c 0.65513,-1.85682 1.03476,-5.44406 0.85468,-8.07617 -0.0949,-1.38755 -0.28972,-4.83985 -0.43286,-7.67178 -0.41933,-8.29597 -1.45552,-13.1083 -3.88715,-18.05298 -1.70054,-3.45801 -3.59485,-6.01473 -5.84198,-7.88481 -1.58384,-1.31808 -4.58791,-3.00346 -6.02185,-3.37844 -0.54752,-0.14318 -0.56555,-0.33483 -0.56555,-6.01341 l 0,-5.86552 3.65983,0.1599 c 9.73235,0.4252 18.48397,4.84691 23.94968,12.10044 0.92844,1.23214 1.93831,2.73075 2.24415,3.33025 l 0.55607,1.08999 -0.69235,1.43541 c -2.34433,4.86034 -1.21257,11.65107 3.48734,20.9245 l 2.22911,4.39828 -0.61935,3.10996 c -0.34065,1.71047 -1.05232,4.60151 -1.58151,6.42452 -1.089,3.75156 -4.52626,13.40458 -4.76459,13.38063 -0.0861,-0.009 -1.02656,-0.77016 -2.08998,-1.69223 z"
       id="path18128"
       inkscape:connector-curvature="0" />
  </g>
  <g
     inkscape:groupmode="layer"
     id="layer8"
     inkscape:label="Head"
     transform="translate(-204.94017,-370.25372)">
    <circle
       style="opacity:1;fill:#00ff00;fill-rule:evenodd;stroke:#000000;stroke-width:1px;stroke-linecap:butt;stroke-linejoin:miter;stroke-opacity:1"
       id="path3449-96-98"
       cx="268.57458"
       cy="487.98541"
       r="35.355339" />
  </g>
</svg>
