<?xml version="1.0" encoding="UTF-8" standalone="no"?>
<!-- Created with Inkscape (http://www.inkscape.org/) -->

<svg
   xmlns:dc="http://purl.org/dc/elements/1.1/"
   xmlns:cc="http://creativecommons.org/ns#"
   xmlns:rdf="http://www.w3.org/1999/02/22-rdf-syntax-ns#"
   xmlns:svg="http://www.w3.org/2000/svg"
   xmlns="http://www.w3.org/2000/svg"
   xmlns:sodipodi="http://sodipodi.sourceforge.net/DTD/sodipodi-0.dtd"
   xmlns:inkscape="http://www.inkscape.org/namespaces/inkscape"
   width="28.004765mm"
   height="46.792011mm"
   viewBox="0 0 99.229481 165.79846"
   id="svg18207"
   version="1.1"
   inkscape:version="0.91 r13725"
   sodipodi:docname="Player_TriShot.svg"
   inkscape:export-filename="C:\FFF2\Art\Player\Export\Player_TriShot.png"
   inkscape:export-xdpi="69.481949"
   inkscape:export-ydpi="69.481949">
  <defs
     id="defs18209" />
  <sodipodi:namedview
     id="base"
     pagecolor="#ffffff"
     bordercolor="#666666"
     borderopacity="1.0"
     inkscape:pageopacity="0.0"
     inkscape:pageshadow="2"
     inkscape:zoom="1.28"
     inkscape:cx="-204.43586"
     inkscape:cy="-74.184545"
     inkscape:document-units="px"
     inkscape:current-layer="layer1"
     showgrid="false"
     inkscape:window-width="1920"
     inkscape:window-height="1017"
     inkscape:window-x="-8"
     inkscape:window-y="-8"
     inkscape:window-maximized="1"
     fit-margin-top="3"
     fit-margin-left="3"
     fit-margin-right="3"
     fit-margin-bottom="3" />
  <metadata
     id="metadata18212">
    <rdf:RDF>
      <cc:Work
         rdf:about="">
        <dc:format>image/svg+xml</dc:format>
        <dc:type
           rdf:resource="http://purl.org/dc/dcmitype/StillImage" />
        <dc:title />
      </cc:Work>
    </rdf:RDF>
  </metadata>
  <g
     inkscape:label="Arms"
     inkscape:groupmode="layer"
     id="layer1"
     transform="translate(-307.52812,-289.46298)">
    <path
       style="display:inline;fill:none;fill-rule:evenodd;stroke:#000000;stroke-width:1px;stroke-linecap:butt;stroke-linejoin:miter;stroke-opacity:1"
       d="m 332.93233,386.35912 c -1.29354,-4.68973 -1.6918,-9.6523 -0.95525,-14.47065 1.36474,-4.5659 4.58384,-8.32413 8.20309,-11.30789 0.14961,-0.0361 0.29923,-0.0722 0.44884,-0.10831"
       id="path3513-7"
       inkscape:connector-curvature="0" />
    <path
       style="display:inline;fill:none;fill-rule:evenodd;stroke:#000000;stroke-width:1px;stroke-linecap:butt;stroke-linejoin:miter;stroke-opacity:1"
       d="m 341.96297,347.09875 c -12.85815,3.24971 -21.0541,16.12046 -23.217,28.5593 -0.68623,7.77228 2.70897,15.6214 8.34382,20.91453"
       id="path3537-7"
       inkscape:connector-curvature="0" />
    <path
       style="display:inline;fill:none;fill-rule:evenodd;stroke:#000000;stroke-width:0.99462539px;stroke-linecap:butt;stroke-linejoin:miter;stroke-opacity:1"
       d="m 325.10771,359.17142 c 2.99065,5.96176 0.0727,14.0578 -6.02162,16.75512"
       id="path3541-6"
       inkscape:connector-curvature="0" />
    <path
       style="display:inline;fill:none;fill-rule:evenodd;stroke:#000000;stroke-width:1px;stroke-linecap:butt;stroke-linejoin:miter;stroke-opacity:1"
       d="m 372.38348,375.55989 c 2.03003,-4.23799 1.62608,-9.08747 1.1156,-13.61534 0.0213,-8.67582 -1.02681,-17.87266 -6.09254,-25.18619 -2.46462,-3.50958 -6.03545,-6.49145 -10.33034,-7.33456 -0.53703,0.004 -1.7956,0.18011 -2.30036,0.36683"
       id="path3681-98"
       inkscape:connector-curvature="0"
       sodipodi:nodetypes="ccccc" />
    <path
       style="display:inline;fill:none;fill-rule:evenodd;stroke:#000000;stroke-width:1px;stroke-linecap:butt;stroke-linejoin:miter;stroke-opacity:1"
       d="m 386.15195,384.68786 c 4.36784,-11.39294 8.88224,-23.41735 7.45743,-35.84016 -1.96475,-10.08474 -6.37046,-20.5303 -15.24312,-26.38346 -6.66966,-4.41897 -15.85403,-6.66107 -23.79447,-5.71035"
       id="path3799-66"
       inkscape:connector-curvature="0"
       sodipodi:nodetypes="cccc" />
    <path
       style="display:inline;fill:none;fill-rule:evenodd;stroke:#000000;stroke-width:1px;stroke-linecap:butt;stroke-linejoin:miter;stroke-opacity:1"
       d="m 388.57605,334.06494 c -2.14623,2.59274 -2.41553,6.1974 -1.93421,9.40453 0.76775,5.84104 3.53179,11.15149 6.35538,16.2342 0.10196,0.15409 0.25246,0.29078 0.44015,0.3244"
       id="path3827-8"
       inkscape:connector-curvature="0" />
    <path
       style="fill:#677821;fill-opacity:1"
       d="m 392.56132,357.94735 c -0.7771,-1.19062 -3.49839,-7.13426 -4.12198,-9.0029 -1.77123,-5.30766 -1.94946,-10.14411 -0.47997,-13.02454 0.21754,-0.42641 0.47328,-0.77529 0.56832,-0.77529 0.25636,0 2.02289,4.29428 2.91688,7.09069 1.19463,3.73679 1.78206,6.63797 1.91666,9.466 0.13037,2.73902 -0.071,6.6855 -0.34107,6.6855 -0.0946,0 -0.30109,-0.19776 -0.45884,-0.43946 z"
       id="path19155"
       inkscape:connector-curvature="0" />
  </g>
  <g
     inkscape:groupmode="layer"
     id="layer9"
     inkscape:label="Gun"
     transform="translate(-307.52812,-289.46298)">
    <path
       style="display:inline;fill:#c87137;stroke:#000000"
       d="m 341.79131,307.63981 c -2.12354,0.12545 -4.99119,-0.002 -6.13668,2.15723 -2.39096,9.00748 -1.31776,18.39623 -1.27416,27.58876 0.19279,4.62343 0.52393,9.24971 1.26252,13.82135 1.10577,2.87152 4.53205,3.87527 7.35179,3.64112 2.93777,0.18992 6.12999,0.0946 8.64766,-1.62471 2.61954,-3.02949 1.92696,-7.27926 2.54126,-10.94773 0.82124,-10.30603 0.80443,-20.67334 0.0647,-30.98367 -0.58951,-2.48354 -3.43277,-3.85897 -5.8277,-3.40134 -2.20929,-0.0971 -4.41973,-0.1645 -6.62943,-0.25101 z"
       id="path3489"
       inkscape:connector-curvature="0" />
    <path
       style="display:inline;fill:none;fill-rule:evenodd;stroke:#000000;stroke-width:1px;stroke-linecap:butt;stroke-linejoin:miter;stroke-opacity:1"
       d="m 340.19947,379.67152 0,-25.05588"
       id="path3496"
       inkscape:connector-curvature="0" />
    <path
       style="display:inline;fill:none;fill-rule:evenodd;stroke:#000000;stroke-width:1px;stroke-linecap:butt;stroke-linejoin:miter;stroke-opacity:1"
       d="m 346.72347,376.11995 0,-21.28933"
       id="path3498"
       inkscape:connector-curvature="0" />
    <path
       style="display:inline;fill:none;fill-rule:evenodd;stroke:#000000;stroke-width:1px;stroke-linecap:butt;stroke-linejoin:miter;stroke-opacity:1"
       d="m 339.78099,307.80095 0,-5.39609 9.31399,0 0,5.54888"
       id="path3500"
       inkscape:connector-curvature="0" />
    <path
       style="display:inline;fill:none;fill-rule:evenodd;stroke:#000000;stroke-width:1px;stroke-linecap:butt;stroke-linejoin:miter;stroke-opacity:1"
       d="m 342.73102,302.40486 0,-1.81196 2.69584,0 0,1.81196"
       id="path3502"
       inkscape:connector-curvature="0" />
    <path
       style="fill:#666666;fill-opacity:1"
       d="m 340.60736,367.02281 c 0.003,-6.41578 0.0506,-11.68283 0.10477,-11.70455 0.0541,-0.0217 1.32584,-0.0214 2.82603,7e-4 l 2.72761,0.0402 0,10.20359 0,10.2036 -1.4619,0.69833 c -0.80405,0.38408 -2.03688,1.04143 -2.73962,1.46077 -0.70274,0.41935 -1.31945,0.76244 -1.37047,0.76244 -0.051,0 -0.0899,-5.24927 -0.0864,-11.66506 z"
       id="path18279"
       inkscape:connector-curvature="0" />
    <path
       style="fill:#666666;fill-opacity:1"
       d="m 346.52823,307.36498 c -0.0329,-0.0329 -1.45711,-0.089 -3.16495,-0.12469 l -3.10516,-0.0649 0,-2.11954 0,-2.11954 4.17773,-0.0366 4.17773,-0.0366 0,2.28079 0,2.28079 -1.01278,0 c -0.55703,0 -1.03969,-0.0269 -1.07257,-0.0598 z"
       id="path18281"
       inkscape:connector-curvature="0" />
    <path
       style="fill:#333333;fill-opacity:1"
       d="m 343.22742,301.48618 0,-0.41432 0.89769,0 0.8977,0 0,0.41432 0,0.41432 -0.8977,0 -0.89769,0 0,-0.41432 z"
       id="path18283"
       inkscape:connector-curvature="0" />
  </g>
  <g
     inkscape:groupmode="layer"
     id="layer10"
     inkscape:label="Head"
     transform="translate(-307.52812,-289.46298)">
    <circle
       style="display:inline;opacity:1;fill:#00ff00;fill-rule:evenodd;stroke:#000000;stroke-width:1px;stroke-linecap:butt;stroke-linejoin:miter;stroke-opacity:1"
       id="path3449-96-3"
       cx="360.27234"
       cy="408.77618"
       r="35.355339" />
    <path
       style="fill:#00ff00;fill-opacity:1"
       d="m 325.5636,394.29715 c -2.96049,-3.43974 -5.02094,-7.5591 -5.96152,-11.91862 -0.38549,-1.78668 -0.62643,-6.33562 -0.32573,-6.14978 0.37292,0.23048 3.16115,-1.82338 4.22305,-3.11077 1.19039,-1.44317 2.29399,-3.56526 2.78551,-5.35617 0.50988,-1.85786 0.46721,-5.34074 -0.0861,-7.02392 l -0.41489,-1.2622 1.10132,-1.47217 c 1.46848,-1.96298 4.485,-4.92069 6.43153,-6.30617 0.8678,-0.61767 1.62411,-1.12304 1.68069,-1.12304 0.0566,0 0.15899,0.28564 0.22761,0.63476 0.25887,1.31715 1.68712,2.71941 3.56083,3.49602 l 1.04539,0.43328 -0.002,2.55195 -0.002,2.55196 -1.67352,1.54092 c -2.09696,1.93082 -4.05659,4.45127 -5.20276,6.69172 -1.57198,3.07279 -1.61674,3.30178 -1.61674,8.27126 0,4.28165 0.18552,5.99796 0.98169,9.08203 0.0694,0.26865 -0.27245,0.90902 -1.09465,2.05078 -1.52381,2.11609 -2.60712,3.97018 -3.5136,6.01355 -0.39503,0.89045 -0.76438,1.66516 -0.82078,1.72156 -0.0564,0.0564 -0.65234,-0.53622 -1.32429,-1.31695 z"
       id="path18287"
       inkscape:connector-curvature="0" />
    <path
       style="fill:#00ff00;fill-opacity:1"
       d="m 384.18934,382.20666 c -2.51052,-2.37977 -6.57626,-5.01481 -9.7877,-6.34348 -0.69824,-0.28888 -1.28795,-0.54174 -1.31046,-0.56192 -0.0225,-0.0202 0.16795,-0.69445 0.42325,-1.49839 0.7699,-2.42444 0.97277,-5.00579 0.71223,-9.06245 -0.1244,-1.93687 -0.31005,-5.1691 -0.41256,-7.18274 -0.22126,-4.34651 -0.57868,-6.99611 -1.38992,-10.30369 -1.75136,-7.14064 -5.32669,-12.92995 -9.82558,-15.90997 -2.49399,-1.652 -4.45422,-2.36373 -6.28073,-2.28045 l -0.99392,0.0453 -0.12262,-5.9079 c -0.0674,-3.24935 -0.074,-5.95625 -0.0147,-6.01534 0.0594,-0.0591 1.61649,-0.10073 3.46029,-0.0925 5.83664,0.0259 10.96536,1.26319 16.24298,3.91852 4.89086,2.46074 9.06499,6.32912 12.08336,11.19826 0.49771,0.80289 0.90492,1.57326 0.90492,1.71194 0,0.13869 -0.26002,0.7129 -0.57784,1.27603 -0.90792,1.60876 -1.25478,3.23419 -1.23899,5.80614 0.0295,4.80589 1.75696,10.1433 5.51404,17.03696 l 1.34178,2.46199 -0.27752,1.59921 c -0.90063,5.18988 -2.40908,10.33891 -5.38241,18.37264 -0.67228,1.81645 -1.26902,3.29859 -1.32608,3.29365 -0.0571,-0.005 -0.8409,-0.70775 -1.74184,-1.56178 z"
       id="path18289"
       inkscape:connector-curvature="0" />
    <path
       style="fill:#677821;fill-opacity:1"
       d="m 319.32351,375.00921 c 0,-0.53807 1.22993,-4.89305 1.85374,-6.56381 1.1865,-3.17784 3.52265,-7.71484 3.97245,-7.71484 0.2912,0 0.61913,1.94964 0.61913,3.68093 0,3.97134 -2.17946,8.20085 -5.23685,10.16277 -1.00318,0.64374 -1.20847,0.71763 -1.20847,0.43495 z"
       id="path18586"
       inkscape:connector-curvature="0" />
  </g>
</svg>
