<?xml version="1.0" encoding="UTF-8" standalone="no"?>
<!-- Created with Inkscape (http://www.inkscape.org/) -->

<svg
   xmlns:dc="http://purl.org/dc/elements/1.1/"
   xmlns:cc="http://creativecommons.org/ns#"
   xmlns:rdf="http://www.w3.org/1999/02/22-rdf-syntax-ns#"
   xmlns:svg="http://www.w3.org/2000/svg"
   xmlns="http://www.w3.org/2000/svg"
   xmlns:sodipodi="http://sodipodi.sourceforge.net/DTD/sodipodi-0.dtd"
   xmlns:inkscape="http://www.inkscape.org/namespaces/inkscape"
   width="88.416199mm"
   height="56.237537mm"
   viewBox="0 0 313.28574 199.26686"
   id="svg2"
   version="1.1"
   inkscape:version="0.91 r13725"
   sodipodi:docname="burger.svg"
   inkscape:export-filename="C:\Users\jbmde\bitmap.png"
   inkscape:export-xdpi="36.771542"
   inkscape:export-ydpi="36.771542">
  <defs
     id="defs4">
    <inkscape:path-effect
       effect="spiro"
       id="path-effect4342"
       is_visible="true" />
    <inkscape:path-effect
       effect="spiro"
       id="path-effect4338"
       is_visible="true" />
    <inkscape:path-effect
       effect="spiro"
       id="path-effect4223"
       is_visible="true" />
    <inkscape:path-effect
       effect="spiro"
       id="path-effect4219"
       is_visible="true" />
    <inkscape:path-effect
       effect="spiro"
       id="path-effect4215"
       is_visible="true" />
    <inkscape:path-effect
       effect="spiro"
       id="path-effect4193"
       is_visible="true" />
    <inkscape:path-effect
       effect="spiro"
       id="path-effect4189"
       is_visible="true" />
    <inkscape:path-effect
       effect="spiro"
       id="path-effect4185"
       is_visible="true" />
    <inkscape:path-effect
       effect="spiro"
       id="path-effect4181"
       is_visible="true" />
    <inkscape:path-effect
       effect="spiro"
       id="path-effect4177"
       is_visible="true" />
    <inkscape:path-effect
       effect="spiro"
       id="path-effect4150"
       is_visible="true" />
    <filter
       style="color-interpolation-filters:sRGB"
       inkscape:label="Drop Shadow"
       id="filter4750">
      <feFlood
         flood-opacity="0.498039"
         flood-color="rgb(0,0,0)"
         result="flood"
         id="feFlood4752" />
      <feComposite
         in="flood"
         in2="SourceGraphic"
         operator="out"
         result="composite1"
         id="feComposite4754" />
      <feGaussianBlur
         in="composite1"
         stdDeviation="0"
         result="blur"
         id="feGaussianBlur4756" />
      <feOffset
         dx="6"
         dy="-6"
         result="offset"
         id="feOffset4758" />
      <feComposite
         in="offset"
         in2="SourceGraphic"
         operator="atop"
         result="composite2"
         id="feComposite4760" />
    </filter>
    <filter
       style="color-interpolation-filters:sRGB"
       inkscape:label="Drop Shadow"
       id="filter4762">
      <feFlood
         flood-opacity="0.498039"
         flood-color="rgb(0,0,0)"
         result="flood"
         id="feFlood4764" />
      <feComposite
         in="flood"
         in2="SourceGraphic"
         operator="out"
         result="composite1"
         id="feComposite4766" />
      <feGaussianBlur
         in="composite1"
         stdDeviation="0"
         result="blur"
         id="feGaussianBlur4768" />
      <feOffset
         dx="1.3"
         dy="-2.1"
         result="offset"
         id="feOffset4770" />
      <feComposite
         in="offset"
         in2="SourceGraphic"
         operator="atop"
         result="composite2"
         id="feComposite4772" />
    </filter>
    <filter
       style="color-interpolation-filters:sRGB"
       inkscape:label="Drop Shadow"
       id="filter4774">
      <feFlood
         flood-opacity="0.498039"
         flood-color="rgb(0,0,0)"
         result="flood"
         id="feFlood4776" />
      <feComposite
         in="flood"
         in2="SourceGraphic"
         operator="out"
         result="composite1"
         id="feComposite4778" />
      <feGaussianBlur
         in="composite1"
         stdDeviation="0"
         result="blur"
         id="feGaussianBlur4780" />
      <feOffset
         dx="1.3"
         dy="-2.1"
         result="offset"
         id="feOffset4782" />
      <feComposite
         in="offset"
         in2="SourceGraphic"
         operator="atop"
         result="composite2"
         id="feComposite4784" />
    </filter>
  </defs>
  <sodipodi:namedview
     id="base"
     pagecolor="#ffffff"
     bordercolor="#666666"
     borderopacity="1.0"
     inkscape:pageopacity="0.0"
     inkscape:pageshadow="2"
     inkscape:zoom="1.439748"
     inkscape:cx="124.16195"
     inkscape:cy="81.324008"
     inkscape:document-units="px"
     inkscape:current-layer="layer2"
     showgrid="false"
     inkscape:snap-bbox="true"
     inkscape:bbox-paths="false"
     inkscape:bbox-nodes="true"
     inkscape:object-nodes="true"
     inkscape:snap-intersection-paths="true"
     inkscape:object-paths="true"
     inkscape:snap-global="false"
     inkscape:window-width="1920"
     inkscape:window-height="1027"
     inkscape:window-x="1272"
     inkscape:window-y="-8"
     inkscape:window-maximized="1"
     fit-margin-top="0"
     fit-margin-left="0"
     fit-margin-right="0"
     fit-margin-bottom="0" />
  <metadata
     id="metadata7">
    <rdf:RDF>
      <cc:Work
         rdf:about="">
        <dc:format>image/svg+xml</dc:format>
        <dc:type
           rdf:resource="http://purl.org/dc/dcmitype/StillImage" />
        <dc:title></dc:title>
      </cc:Work>
    </rdf:RDF>
  </metadata>
  <g
     inkscape:label="Layer 1"
     inkscape:groupmode="layer"
     id="layer1"
     transform="translate(-129.98364,-546.74546)"
     sodipodi:insensitive="true">
    <path
       style="fill:none;fill-rule:evenodd;stroke:#000000;stroke-width:1;stroke-linecap:butt;stroke-linejoin:miter;stroke-miterlimit:4;stroke-dasharray:none;stroke-opacity:1"
       d="m 391.42859,736.64795 c -16.60715,5.35714 -48.60557,5.8081 -109.37503,6.24997 -56.19285,0.33209 -80.55296,-0.37127 -103.48213,-6.24997"
       id="path4144"
       inkscape:connector-curvature="0"
       sodipodi:nodetypes="ccc" />
    <rect
       style="fill:none;fill-opacity:1;stroke:#000000;stroke-width:1;stroke-miterlimit:4;stroke-dasharray:none;stroke-dashoffset:0;stroke-opacity:1"
       id="rect4146"
       width="262.5"
       height="45.357143"
       x="155.35715"
       y="654.14789" />
    <path
       style="fill:none;fill-rule:evenodd;stroke:#000000;stroke-width:1px;stroke-linecap:butt;stroke-linejoin:miter;stroke-opacity:1"
       d="m 175.90922,654.14789 c -0.39282,-11.1294 1.43907,-22.33285 5.35624,-32.75752 5.56331,-14.80551 15.29941,-27.91536 27.3842,-38.11887 12.08479,-10.2035 26.46829,-17.54494 41.61563,-22.09597 23.60519,-7.0922 49.45814,-7.35898 72.73099,0.75761 14.68992,5.12322 28.24974,13.53664 39.1951,24.59287 10.94536,11.05622 19.24436,24.75324 23.75061,39.644 2.73902,9.05103 4.08528,18.52211 3.97689,27.97788"
       id="path4175"
       inkscape:path-effect="#path-effect4177"
       inkscape:original-d="m 175.90922,654.14789 c 0,0 -4.83561,-13.00266 5.35624,-32.75752 10.10486,-19.58623 48.02174,-53.45849 68.99983,-60.21484 23.07761,-7.43254 49.87979,-7.34436 72.73099,0.75761 16.71536,5.92649 54.96118,39.00201 62.94571,64.23687 6.46567,20.43454 3.97689,27.97788 3.97689,27.97788"
       inkscape:connector-curvature="0"
       sodipodi:nodetypes="cssssc" />
    <path
       style="fill:none;fill-rule:evenodd;stroke:#000000;stroke-width:1.72330391px;stroke-linecap:butt;stroke-linejoin:miter;stroke-opacity:1"
       d="m 201.93896,605.7788 63.91488,17.94475"
       id="path4179"
       inkscape:path-effect="#path-effect4181"
       inkscape:original-d="m 201.93896,605.7788 c 63.91488,17.94475 63.91488,17.94475 63.91488,17.94475"
       inkscape:connector-curvature="0" />
    <path
       style="fill:none;fill-rule:evenodd;stroke:#000000;stroke-width:1.72330391px;stroke-linecap:butt;stroke-linejoin:miter;stroke-opacity:1"
       d="m 350.73042,590.05532 -53.40393,29.74029"
       id="path4183"
       inkscape:path-effect="#path-effect4185"
       inkscape:original-d="m 350.73042,590.05532 c -53.40393,29.74029 -53.40393,29.74029 -53.40393,29.74029"
       inkscape:connector-curvature="0" />
    <path
       style="fill:none;fill-rule:evenodd;stroke:#000000;stroke-width:1.72330391px;stroke-linecap:butt;stroke-linejoin:miter;stroke-opacity:1"
       d="m 211.17708,608.3725 17.26423,29.29137 37.41253,-13.94032"
       id="path4187"
       inkscape:path-effect="#path-effect4189"
       inkscape:original-d="m 211.17708,608.3725 17.26423,29.29137 37.41253,-13.94032"
       inkscape:connector-curvature="0" />
    <path
       style="fill:none;fill-rule:evenodd;stroke:#000000;stroke-width:1.72330391px;stroke-linecap:butt;stroke-linejoin:miter;stroke-opacity:1"
       d="m 342.81191,594.46508 -7.30427,33.89692 -38.18115,-8.56639"
       id="path4191"
       inkscape:path-effect="#path-effect4193"
       inkscape:original-d="m 342.81191,594.46508 -7.30427,33.89692 -38.18115,-8.56639"
       inkscape:connector-curvature="0" />
    <path
       style="fill:none;fill-rule:evenodd;stroke:#000000;stroke-width:1px;stroke-linecap:butt;stroke-linejoin:miter;stroke-opacity:1"
       d="m 155.35715,699.505 12.58071,15.97133 42.42641,-8.83883 32.82996,4.29314 20.20305,-9.99699 22.22335,13.27999 c 15.21673,-1.70646 30.37922,-3.8966 45.45687,-6.56599 11.16227,-1.9762 22.27805,-4.21503 33.33503,-6.714 l 20.20305,13.78507 33.24157,-15.21372"
       id="path4213"
       inkscape:path-effect="#path-effect4215"
       inkscape:original-d="m 155.35715,699.505 12.58071,15.97133 42.42641,-8.83883 32.82996,4.29314 20.20305,-9.99699 22.22335,13.27999 45.45687,-6.56599 33.33503,-6.714 20.20305,13.78507 33.24157,-15.21372"
       inkscape:connector-curvature="0" />
    <path
       style="fill:none;fill-rule:evenodd;stroke:#000000;stroke-width:1px;stroke-linecap:butt;stroke-linejoin:miter;stroke-opacity:1"
       d="m 178.57143,736.64795 0,-23.38695"
       id="path4217"
       inkscape:path-effect="#path-effect4219"
       inkscape:original-d="m 178.57143,736.64795 0,-23.38695"
       inkscape:connector-curvature="0" />
    <path
       style="fill:none;fill-rule:evenodd;stroke:#000000;stroke-width:1px;stroke-linecap:butt;stroke-linejoin:miter;stroke-opacity:1"
       d="m 391.42859,736.64795 0,-25.04735"
       id="path4221"
       inkscape:path-effect="#path-effect4223"
       inkscape:original-d="m 391.42859,736.64795 0,-25.04735"
       inkscape:connector-curvature="0" />
    <path
       style="fill:#c8ab37;fill-opacity:1;stroke:#000000;stroke-width:0.35714287;stroke-miterlimit:4;stroke-dasharray:none;stroke-dashoffset:0;stroke-opacity:1;filter:url(#filter4762)"
       d="m 225.01935,741.79341 c -17.80467,-0.77183 -31.12967,-2.28644 -41.96429,-4.76996 l -3.57142,-0.81864 -0.0924,-11.22072 -0.0924,-11.22072 15.58205,-3.22684 15.58206,-3.22684 15.58181,2.05472 c 8.56999,1.1301 16.01315,2.05986 16.54034,2.06613 0.5272,0.006 5.43403,-2.16726 10.90409,-4.83007 l 9.94555,-4.84148 11.0602,6.58627 11.06019,6.58626 9.46429,-1.19209 c 21.2071,-2.67118 42.81173,-6.35036 63.03571,-10.73473 3.14286,-0.68135 5.95716,-1.17607 6.254,-1.09938 0.29684,0.0767 4.93193,3.13773 10.3002,6.80231 5.36827,3.66459 9.91124,6.66288 10.09548,6.66288 0.18424,0 1.2545,-0.46118 2.37837,-1.02485 1.12386,-0.56367 2.4072,-1.1377 2.85187,-1.27563 l 0.80848,-0.25077 -0.0942,11.68964 -0.0942,11.68965 -2.32143,0.65541 c -8.27754,2.33702 -23.64623,3.79155 -48.75,4.61381 -14.18279,0.46455 -105.28139,0.72372 -114.46429,0.32564 z"
       id="path4237"
       inkscape:connector-curvature="0" />
    <path
       style="fill:#008000;fill-opacity:1;stroke:#000000;stroke-width:0.35714287;stroke-miterlimit:4;stroke-dasharray:none;stroke-dashoffset:0;stroke-opacity:1"
       d="m 162.41261,707.40549 -5.64245,-7.21355 64.48174,-0.0903 c 35.46495,-0.0496 93.5107,-0.0496 128.99054,0 l 64.50881,0.0903 -15.042,6.87931 -15.042,6.87931 -9.73466,-6.66564 c -5.35407,-3.66609 -9.99374,-6.73455 -10.31039,-6.81879 -0.31665,-0.0842 -3.53093,0.49384 -7.14286,1.2846 -19.36727,4.24011 -41.5133,8.00729 -63.20338,10.75131 l -8.36375,1.0581 -11.09653,-6.59481 c -6.10309,-3.62715 -11.28724,-6.59482 -11.52032,-6.59482 -0.23309,0 -4.88251,2.22562 -10.33205,4.94582 l -9.90825,4.94582 -16.3585,-2.14862 -16.3585,-2.14862 -20.96292,4.3531 c -11.52961,2.3942 -21.04329,4.34138 -21.1415,4.32706 -0.0982,-0.0143 -2.71768,-3.27214 -5.82103,-7.23958 z"
       id="path4239"
       inkscape:connector-curvature="0" />
    <path
       style="fill:#aa4400;fill-opacity:1;stroke:#000000;stroke-width:0.35714287;stroke-miterlimit:4;stroke-dasharray:none;stroke-dashoffset:0;stroke-opacity:1;filter:url(#filter4774)"
       d="m 156.09078,676.79908 0,-22.14285 130.53571,0 130.53572,0 0,22.14285 0,22.14286 -130.53572,0 -130.53571,0 0,-22.14286 z"
       id="path4241"
       inkscape:connector-curvature="0" />
    <path
       style="fill:none;fill-rule:evenodd;stroke:#000000;stroke-width:1px;stroke-linecap:butt;stroke-linejoin:miter;stroke-opacity:1"
       d="m 309.74478,612.87995 2.46435,4.68439 -2.35708,5.04153"
       id="path4336"
       inkscape:path-effect="#path-effect4338"
       inkscape:original-d="m 309.74478,612.87995 2.46435,4.68439 -2.35708,5.04153"
       inkscape:connector-curvature="0"
       sodipodi:nodetypes="ccc" />
    <path
       style="fill:none;fill-rule:evenodd;stroke:#000000;stroke-width:1px;stroke-linecap:butt;stroke-linejoin:miter;stroke-opacity:1"
       d="m 253.26946,620.19036 -1.47146,4.13934 2.27855,3.7822"
       id="path4340"
       inkscape:path-effect="#path-effect4342"
       inkscape:original-d="m 253.26946,620.19036 -1.47146,4.13934 2.27855,3.7822"
       inkscape:connector-curvature="0"
       sodipodi:nodetypes="ccc" />
    <path
       style="fill:#782121;fill-opacity:1;stroke:#000000;stroke-width:0.17857143;stroke-miterlimit:4;stroke-dasharray:none;stroke-dashoffset:0;stroke-opacity:1"
       d="m 253.27632,625.66288 -0.84086,-1.42723 0.54543,-1.49724 0.54543,-1.49725 1.18829,0.3346 c 0.65356,0.18402 2.71072,0.76387 4.57147,1.28854 1.86075,0.52468 3.29625,1.00768 3.19001,1.07334 -0.10625,0.0657 -1.90993,0.75653 -4.00818,1.53526 -2.09826,0.77873 -3.93555,1.46117 -4.08287,1.51654 -0.19083,0.0717 -0.50964,-0.30973 -1.10872,-1.32656 z"
       id="path4350"
       inkscape:connector-curvature="0" />
    <path
       style="fill:#782121;fill-opacity:1;stroke:#000000;stroke-width:0.25;stroke-miterlimit:4;stroke-dasharray:none;stroke-dashoffset:0;stroke-opacity:1"
       d="m 305.05801,620.54765 c -2.26875,-0.52321 -4.3231,-0.99298 -4.56523,-1.04392 -0.26454,-0.0557 1.48123,-1.16324 4.37431,-2.77524 l 4.81455,-2.68263 0.89893,1.78505 0.89894,1.78505 -0.89037,1.96008 c -0.48971,1.07804 -1.00642,1.95171 -1.14825,1.9415 -0.14183,-0.0102 -2.11413,-0.44667 -4.38288,-0.96989 z"
       id="path4729"
       inkscape:connector-curvature="0" />
    <path
       style="fill:#c8ab37;fill-opacity:1;stroke:none;stroke-width:0.17399999;stroke-miterlimit:4;stroke-dasharray:none;stroke-dashoffset:0;stroke-opacity:1;filter:url(#filter4750)"
       d="m 176.49844,650.3163 c 0,-12.404 3.11862,-25.29651 8.92142,-36.88161 12.98198,-25.91806 38.59111,-45.18871 70.78003,-53.26137 15.24013,-3.82207 31.35808,-4.72724 46.18864,-2.59391 15.94543,2.29369 30.43767,7.73569 43.3934,16.29471 14.6311,9.66583 25.97034,22.387 33.67743,37.78173 6.17428,12.333 9.2851,24.57883 9.84765,38.76546 l 0.12222,3.08214 -106.4654,0 -106.46539,0 0,-3.18715 z m 56.57226,-13.36485 c 2.64551,-0.98586 11.19763,-4.17001 19.00471,-7.07589 11.47843,-4.27239 14.17183,-5.33326 14.0752,-5.54388 -0.0657,-0.14326 -0.10635,-0.55348 -0.0903,-0.91162 0.0161,-0.35813 -0.002,-0.65115 -0.0403,-0.65115 -0.0382,0 -14.24272,-3.97984 -31.56556,-8.84408 -17.32285,-4.86424 -31.6971,-8.89453 -31.9428,-8.95619 -0.41925,-0.10523 -0.45986,-0.0573 -0.66052,0.77912 -0.11759,0.49018 -0.18547,0.91183 -0.15083,0.93701 0.0346,0.0252 1.99347,0.58073 4.35296,1.23456 2.3595,0.65383 4.35757,1.23458 4.44018,1.29057 0.0826,0.056 4.05011,6.72404 8.81669,14.81791 4.76659,8.09386 8.73043,14.71611 8.80854,14.71611 0.0781,0 2.30652,-0.80661 4.95203,-1.79247 z m 106.90388,-24.8443 3.66546,-16.99967 3.64064,-2.05074 c 2.00236,-1.1279 3.71728,-2.07932 3.81096,-2.11425 0.0937,-0.0349 -0.0236,-0.4294 -0.26046,-0.8766 -0.29806,-0.56258 -0.51101,-0.78299 -0.69124,-0.7154 -0.37052,0.13896 -53.01447,29.44052 -53.20508,29.61388 -0.093,0.0845 -0.067,0.25255 0.0634,0.40958 0.12152,0.14642 0.18644,0.50136 0.14426,0.78874 -0.0422,0.28739 -0.0707,0.52526 -0.0633,0.52861 0.007,0.003 8.80394,1.98202 19.548,4.39704 12.45279,2.7991 19.56138,4.32343 19.60833,4.20471 0.0405,-0.10243 1.72312,-7.83608 3.73912,-17.1859 z"
       id="path4748"
       inkscape:connector-curvature="0" />
    <path
       style="fill:#ffffff;fill-opacity:1;stroke:none;stroke-width:0.17399999;stroke-miterlimit:4;stroke-dasharray:none;stroke-dashoffset:0;stroke-opacity:1"
       d="m 91.075099,76.535336 c -4.29056,-7.27488 -7.784551,-13.249163 -7.764424,-13.276183 0.02013,-0.02702 8.505556,2.328629 18.856515,5.234775 10.35095,2.906146 19.14242,5.370519 19.5366,5.476384 l 0.71669,0.192484 -0.58401,1.605223 c -0.3212,0.882873 -0.58511,1.698192 -0.58646,1.811821 -0.001,0.113629 0.38656,0.853726 0.86201,1.644661 0.47545,0.790935 0.80754,1.488564 0.73798,1.550284 -0.0696,0.06172 -5.01015,1.928543 -10.97908,4.14849 -5.96892,2.219948 -11.33459,4.216909 -11.923698,4.437692 l -1.071106,0.401424 -7.801017,-13.227055 z"
       id="path4786"
       inkscape:connector-curvature="0"
       transform="translate(129.98364,546.74546)" />
    <path
       style="fill:#ffffff;fill-opacity:1;stroke:none;stroke-width:0.17399999;stroke-miterlimit:4;stroke-dasharray:none;stroke-dashoffset:0;stroke-opacity:1"
       d="m 203.11953,80.127809 c -0.57302,-0.137324 -5.81611,-1.321578 -11.65133,-2.631675 l -10.60948,-2.381997 1.01582,-2.150858 1.01582,-2.150857 -1.07914,-2.050741 c -0.59354,-1.127907 -1.04285,-2.081861 -0.99848,-2.119896 0.0444,-0.03803 6.91781,-3.872375 15.27431,-8.520756 9.12371,-5.075148 15.21009,-8.363291 15.23482,-8.230552 0.0226,0.121577 -1.42692,7.019114 -3.22128,15.32786 -2.94235,13.624525 -3.29566,15.109379 -3.60084,15.132982 -0.1861,0.01439 -0.8072,-0.08619 -1.38022,-0.22351 z"
       id="path4788"
       inkscape:connector-curvature="0"
       transform="translate(129.98364,546.74546)" />
    <path
       style="fill:#ffffff;fill-opacity:1;stroke:none;stroke-width:0.17399999;stroke-miterlimit:4;stroke-dasharray:none;stroke-dashoffset:0;stroke-opacity:1"
       d="m 192.70024,77.850497 c -6.56525,-1.473854 -11.93681,-2.685627 -11.93681,-2.692829 0,-0.0072 0.45646,-0.989424 1.01437,-2.182716 l 1.01438,-2.169623 -1.08467,-2.061729 c -0.59657,-1.133951 -1.08584,-2.067988 -1.08728,-2.075638 -0.001,-0.0076 0.50157,-0.295556 1.11779,-0.639791 l 1.12039,-0.625881 10.91619,-9.83e-4 10.91618,-9.84e-4 0,7.566507 c 0,7.196558 -10e-4,7.566432 -0.0269,7.564955 -0.0148,-8.55e-4 -5.39843,-1.207434 -11.96368,-2.681288 z"
       id="path4790"
       inkscape:connector-curvature="0"
       transform="translate(129.98364,546.74546)" />
  </g>
  <g
     inkscape:groupmode="layer"
     id="layer2"
     inkscape:label="Seeds"
     style="display:inline"
     transform="translate(-129.98364,-546.74546)">
    <ellipse
       style="fill:#c87137;fill-opacity:1;stroke:#000000;stroke-width:2;stroke-miterlimit:4;stroke-dasharray:none;stroke-dashoffset:0;stroke-opacity:1"
       id="path4229"
       cx="272.85715"
       cy="569.86218"
       rx="2.1428571"
       ry="3.5714285" />
    <ellipse
       style="fill:#c87137;fill-opacity:1;stroke:#000000;stroke-width:2;stroke-miterlimit:4;stroke-dasharray:none;stroke-dashoffset:0;stroke-opacity:1"
       id="path4233"
       cx="295"
       cy="570.57648"
       rx="2.1428571"
       ry="3.5714285" />
    <ellipse
       style="fill:#c87137;fill-opacity:1;stroke:#000000;stroke-width:2;stroke-miterlimit:4;stroke-dasharray:none;stroke-dashoffset:0;stroke-opacity:1"
       id="path4233-6"
       cx="282.32144"
       cy="585.48718"
       rx="2.1428571"
       ry="3.5714285" />
    <ellipse
       style="fill:#c87137;fill-opacity:1;stroke:#000000;stroke-width:2;stroke-miterlimit:4;stroke-dasharray:none;stroke-dashoffset:0;stroke-opacity:1"
       id="path4233-1"
       cx="350.27039"
       cy="611.1781"
       rx="2.1428571"
       ry="3.5714285" />
    <ellipse
       style="fill:#c87137;fill-opacity:1;stroke:#000000;stroke-width:2;stroke-miterlimit:4;stroke-dasharray:none;stroke-dashoffset:0;stroke-opacity:1"
       id="path4233-0"
       cx="316.68283"
       cy="576.07526"
       rx="2.1428571"
       ry="3.5714285" />
    <ellipse
       style="fill:#c87137;fill-opacity:1;stroke:#000000;stroke-width:2;stroke-miterlimit:4;stroke-dasharray:none;stroke-dashoffset:0;stroke-opacity:1"
       id="path4233-4"
       cx="249.00261"
       cy="584.40906"
       rx="2.1428571"
       ry="3.5714285" />
    <ellipse
       style="fill:#c87137;fill-opacity:1;stroke:#000000;stroke-width:2;stroke-miterlimit:4;stroke-dasharray:none;stroke-dashoffset:0;stroke-opacity:1"
       id="path4233-63"
       cx="246.72977"
       cy="596.53088"
       rx="2.1428571"
       ry="3.5714285" />
    <ellipse
       style="fill:#c87137;fill-opacity:1;stroke:#000000;stroke-width:2;stroke-miterlimit:4;stroke-dasharray:none;stroke-dashoffset:0;stroke-opacity:1"
       id="path4233-5"
       cx="224.75894"
       cy="589.20728"
       rx="2.1428571"
       ry="3.5714285" />
    <ellipse
       style="fill:#c87137;fill-opacity:1;stroke:#000000;stroke-width:2;stroke-miterlimit:4;stroke-dasharray:none;stroke-dashoffset:0;stroke-opacity:1"
       id="path4233-04"
       cx="199.75766"
       cy="627.84558"
       rx="2.1428571"
       ry="3.5714285" />
    <ellipse
       style="fill:#c87137;fill-opacity:1;stroke:#000000;stroke-width:2;stroke-miterlimit:4;stroke-dasharray:none;stroke-dashoffset:0;stroke-opacity:1"
       id="path4233-7"
       cx="206.5762"
       cy="597.28845"
       rx="2.1428571"
       ry="3.5714285" />
    <ellipse
       style="fill:#c87137;fill-opacity:1;stroke:#000000;stroke-width:2;stroke-miterlimit:4;stroke-dasharray:none;stroke-dashoffset:0;stroke-opacity:1"
       id="path4233-76"
       cx="277.03433"
       cy="606.63239"
       rx="2.1428571"
       ry="3.5714285" />
    <ellipse
       style="fill:#c87137;fill-opacity:1;stroke:#000000;stroke-width:2;stroke-miterlimit:4;stroke-dasharray:none;stroke-dashoffset:0;stroke-opacity:1"
       id="path4233-9"
       cx="297.995"
       cy="593.24786"
       rx="2.1428571"
       ry="3.5714285" />
    <ellipse
       style="fill:#c87137;fill-opacity:1;stroke:#000000;stroke-width:2;stroke-miterlimit:4;stroke-dasharray:none;stroke-dashoffset:0;stroke-opacity:1"
       id="path4233-73"
       cx="355.32117"
       cy="600.57147"
       rx="2.1428571"
       ry="3.5714285" />
    <ellipse
       style="fill:#c87137;fill-opacity:1;stroke:#000000;stroke-width:2;stroke-miterlimit:4;stroke-dasharray:none;stroke-dashoffset:0;stroke-opacity:1"
       id="path4233-2"
       cx="371.23105"
       cy="620.77454"
       rx="2.1428571"
       ry="3.5714285" />
    <ellipse
       style="fill:#c87137;fill-opacity:1;stroke:#000000;stroke-width:2;stroke-miterlimit:4;stroke-dasharray:none;stroke-dashoffset:0;stroke-opacity:1"
       id="path4233-17"
       cx="310.62192"
       cy="590.46997"
       rx="2.1428571"
       ry="3.5714285" />
    <ellipse
       style="fill:#c87137;fill-opacity:1;stroke:#000000;stroke-width:2;stroke-miterlimit:4;stroke-dasharray:none;stroke-dashoffset:0;stroke-opacity:1"
       id="path4233-48"
       cx="287.85715"
       cy="626.11218"
       rx="2.1428571"
       ry="3.5714285" />
  </g>
</svg>
